#Comment line ignore any data following # character 
#Hierarchical Translation and Rotation (.htr) file 
[Header]	
#Header keywords are followed by a single value 
FileType HTR		#Single word string
DataType HTRS		#Translation followed by rotation and scale data
FileVersion 1		#integer
NumSegments 84		#integer
NumFrames 2		#integer
DataFrameRate 30		#integer, data frame rate in this file
EulerRotationOrder ZYX
CalibrationUnits mm
RotationUnits Degrees
GlobalAxisofGravity Y
BoneLengthAxis Y
ScaleFactor 1.00
[SegmentNames&Hierarchy]
#CHILD	PARENT
MASTER GLOBAL
root MASTER
chest root
L_mid_tent01 root
R_mid_tent01 root
spine01 root
Bip01_Neck chest
L_humerus chest
R_humerus chest
weapon_bone chest
Bip01_Head Bip01_Neck
eye_left_bone Bip01_Head
eye_right_bone Bip01_Head
L_forearm L_humerus
L_front_hand L_forearm
L_weapon_bone L_forearm
L_front_hand01_01 L_front_hand
L_front_hand02_01 L_front_hand
L_front_hand03_01 L_front_hand
L_front_hand01_02 L_front_hand01_01
L_front_hand02_02 L_front_hand02_01
L_front_hand03_02 L_front_hand03_01
R_forearm R_humerus
R_front_hand R_forearm
R_weapon_bone R_forearm
R_front_hand01_01 R_front_hand
R_front_hand02_01 R_front_hand
R_front_hand03_01 R_front_hand
R_front_hand01_02 R_front_hand01_01
R_front_hand02_02 R_front_hand02_01
R_front_hand03_02 R_front_hand03_01
null_rope01_connect L_mid_tent01
Rope1_Seg01 null_rope01_connect
Rope1_Seg02 Rope1_Seg01
Rope1_Seg03 Rope1_Seg02
Rope1_Seg04 Rope1_Seg03
Rope1_Seg05 Rope1_Seg04
Rope1_Seg06 Rope1_Seg05
Rope1_Seg07 Rope1_Seg06
Rope1_Seg09 Rope1_Seg07
L_mid_hand01 Rope1_Seg09
L_mid_hand02 Rope1_Seg09
L_mid_hand03 Rope1_Seg09
null_rope02_connect R_mid_tent01
Rope2_Seg01 null_rope02_connect
Rope2_Seg02 Rope2_Seg01
Rope2_Seg03 Rope2_Seg02
Rope2_Seg04 Rope2_Seg03
Rope2_Seg05 Rope2_Seg04
Rope2_Seg06 Rope2_Seg05
Rope2_Seg07 Rope2_Seg06
Rope2_Seg09 Rope2_Seg07
R_mid_hand01 Rope2_Seg09
R_mid_hand02 Rope2_Seg09
R_mid_hand03 Rope2_Seg09
spine02 spine01
spine03 spine02
pelvis spine03
null_rope03_connect pelvis
null_rope04_connect pelvis
Rope3_Seg01 null_rope03_connect
Rope3_Seg02 Rope3_Seg01
Rope3_Seg03 Rope3_Seg02
Rope3_Seg04 Rope3_Seg03
Rope3_Seg05 Rope3_Seg04
Rope3_Seg06 Rope3_Seg05
Rope3_Seg07 Rope3_Seg06
Rope3_Seg08 Rope3_Seg07
Rope3_Seg09 Rope3_Seg08
R_rear_hand01 Rope3_Seg09
R_rear_hand02 Rope3_Seg09
R_rear_hand03 Rope3_Seg09
Rope4_Seg01 null_rope04_connect
Rope4_Seg02 Rope4_Seg01
Rope4_Seg03 Rope4_Seg02
Rope4_Seg04 Rope4_Seg03
Rope4_Seg05 Rope4_Seg04
Rope4_Seg06 Rope4_Seg05
Rope4_Seg07 Rope4_Seg06
Rope4_Seg08 Rope4_Seg07
Rope4_Seg09 Rope4_Seg08
L_rear_hand01 Rope4_Seg09
L_rear_hand02 Rope4_Seg09
L_rear_hand03 Rope4_Seg09
[BasePosition]
#SegmentName Tx, Ty, Tz, Rx, Ry, Rz, BoneLength
MASTER 0.000000 0.000000 0.000000 -90.000000 0.000000 0.000000 10.000000 
root 0.000000 0.000000 0.000000 0.000000 0.000000 0.000000 10.000000 
chest 0.000000 0.000000 0.000000 0.000000 0.000000 0.000000 10.000000 
L_mid_tent01 0.000000 0.000000 0.000000 0.000000 0.000000 0.000000 10.000000 
R_mid_tent01 0.000000 0.000000 0.000000 0.000000 0.000000 0.000000 10.000000 
spine01 0.000000 0.000000 0.000000 0.000000 0.000000 0.000000 10.000000 
Bip01_Neck 0.000000 0.000000 0.000000 0.000000 0.000000 0.000000 10.000000 
L_humerus 0.000000 0.000000 0.000000 0.000000 0.000000 0.000000 10.000000 
R_humerus 0.000000 0.000000 0.000000 0.000000 0.000000 0.000000 10.000000 
weapon_bone 0.000000 0.000000 0.000000 0.000000 0.000000 0.000000 10.000000 
Bip01_Head 0.000000 0.000000 0.000000 0.000000 0.000000 0.000000 10.000000 
eye_left_bone 0.000000 0.000000 0.000000 0.000000 0.000000 0.000000 10.000000 
eye_right_bone 0.000000 0.000000 0.000000 0.000000 0.000000 0.000000 10.000000 
L_forearm 0.000000 0.000000 0.000000 0.000000 0.000000 0.000000 10.000000 
L_front_hand 0.000000 0.000000 0.000000 0.000000 0.000000 0.000000 10.000000 
L_weapon_bone 0.000000 0.000000 0.000000 0.000000 0.000000 0.000000 10.000000 
L_front_hand01_01 0.000000 0.000000 0.000000 0.000000 0.000000 0.000000 10.000000 
L_front_hand02_01 0.000000 0.000000 0.000000 0.000000 0.000000 0.000000 10.000000 
L_front_hand03_01 0.000000 0.000000 0.000000 0.000000 0.000000 0.000000 10.000000 
L_front_hand01_02 0.000000 0.000000 0.000000 0.000000 0.000000 0.000000 10.000000 
L_front_hand02_02 0.000000 0.000000 0.000000 0.000000 0.000000 0.000000 10.000000 
L_front_hand03_02 0.000000 0.000000 0.000000 0.000000 0.000000 0.000000 10.000000 
R_forearm 0.000000 0.000000 0.000000 0.000000 0.000000 0.000000 10.000000 
R_front_hand 0.000000 0.000000 0.000000 0.000000 0.000000 0.000000 10.000000 
R_weapon_bone 0.000000 0.000000 0.000000 0.000000 0.000000 0.000000 10.000000 
R_front_hand01_01 0.000000 0.000000 0.000000 0.000000 0.000000 0.000000 10.000000 
R_front_hand02_01 0.000000 0.000000 0.000000 0.000000 0.000000 0.000000 10.000000 
R_front_hand03_01 0.000000 0.000000 0.000000 0.000000 0.000000 0.000000 10.000000 
R_front_hand01_02 0.000000 0.000000 0.000000 0.000000 0.000000 0.000000 10.000000 
R_front_hand02_02 0.000000 0.000000 0.000000 0.000000 0.000000 0.000000 10.000000 
R_front_hand03_02 0.000000 0.000000 0.000000 0.000000 0.000000 0.000000 10.000000 
null_rope01_connect 0.000000 0.000000 0.000000 0.000000 0.000000 0.000000 10.000000 
Rope1_Seg01 0.000000 0.000000 0.000000 0.000000 0.000000 0.000000 10.000000 
Rope1_Seg02 0.000000 0.000000 0.000000 0.000000 0.000000 0.000000 10.000000 
Rope1_Seg03 0.000000 0.000000 0.000000 0.000000 0.000000 0.000000 10.000000 
Rope1_Seg04 0.000000 0.000000 0.000000 0.000000 0.000000 0.000000 10.000000 
Rope1_Seg05 0.000000 0.000000 0.000000 0.000000 0.000000 0.000000 10.000000 
Rope1_Seg06 0.000000 0.000000 0.000000 0.000000 0.000000 0.000000 10.000000 
Rope1_Seg07 0.000000 0.000000 0.000000 0.000000 0.000000 0.000000 10.000000 
Rope1_Seg09 0.000000 0.000000 0.000000 0.000000 0.000000 0.000000 10.000000 
L_mid_hand01 0.000000 0.000000 0.000000 0.000000 0.000000 0.000000 10.000000 
L_mid_hand02 0.000000 0.000000 0.000000 0.000000 0.000000 0.000000 10.000000 
L_mid_hand03 0.000000 0.000000 0.000000 0.000000 0.000000 0.000000 10.000000 
null_rope02_connect 0.000000 0.000000 0.000000 0.000000 0.000000 0.000000 10.000000 
Rope2_Seg01 0.000000 0.000000 0.000000 0.000000 0.000000 0.000000 10.000000 
Rope2_Seg02 0.000000 0.000000 0.000000 0.000000 0.000000 0.000000 10.000000 
Rope2_Seg03 0.000000 0.000000 0.000000 0.000000 0.000000 0.000000 10.000000 
Rope2_Seg04 0.000000 0.000000 0.000000 0.000000 0.000000 0.000000 10.000000 
Rope2_Seg05 0.000000 0.000000 0.000000 0.000000 0.000000 0.000000 10.000000 
Rope2_Seg06 0.000000 0.000000 0.000000 0.000000 0.000000 0.000000 10.000000 
Rope2_Seg07 0.000000 0.000000 0.000000 0.000000 0.000000 0.000000 10.000000 
Rope2_Seg09 0.000000 0.000000 0.000000 0.000000 0.000000 0.000000 10.000000 
R_mid_hand01 0.000000 0.000000 0.000000 0.000000 0.000000 0.000000 10.000000 
R_mid_hand02 0.000000 0.000000 0.000000 0.000000 0.000000 0.000000 10.000000 
R_mid_hand03 0.000000 0.000000 0.000000 0.000000 0.000000 0.000000 10.000000 
spine02 0.000000 0.000000 0.000000 0.000000 0.000000 0.000000 10.000000 
spine03 0.000000 0.000000 0.000000 0.000000 0.000000 0.000000 10.000000 
pelvis 0.000000 0.000000 0.000000 0.000000 0.000000 0.000000 10.000000 
null_rope03_connect 0.000000 0.000000 0.000000 0.000000 0.000000 0.000000 10.000000 
null_rope04_connect 0.000000 0.000000 0.000000 0.000000 0.000000 0.000000 10.000000 
Rope3_Seg01 0.000000 0.000000 0.000000 0.000000 0.000000 0.000000 10.000000 
Rope3_Seg02 0.000000 0.000000 0.000000 0.000000 0.000000 0.000000 10.000000 
Rope3_Seg03 0.000000 0.000000 0.000000 0.000000 0.000000 0.000000 10.000000 
Rope3_Seg04 0.000000 0.000000 0.000000 0.000000 0.000000 0.000000 10.000000 
Rope3_Seg05 0.000000 0.000000 0.000000 0.000000 0.000000 0.000000 10.000000 
Rope3_Seg06 0.000000 0.000000 0.000000 0.000000 0.000000 0.000000 10.000000 
Rope3_Seg07 0.000000 0.000000 0.000000 0.000000 0.000000 0.000000 10.000000 
Rope3_Seg08 0.000000 0.000000 0.000000 0.000000 0.000000 0.000000 10.000000 
Rope3_Seg09 0.000000 0.000000 0.000000 0.000000 0.000000 0.000000 10.000000 
R_rear_hand01 0.000000 0.000000 0.000000 0.000000 0.000000 0.000000 10.000000 
R_rear_hand02 0.000000 0.000000 0.000000 0.000000 0.000000 0.000000 10.000000 
R_rear_hand03 0.000000 0.000000 0.000000 0.000000 0.000000 0.000000 10.000000 
Rope4_Seg01 0.000000 0.000000 0.000000 0.000000 0.000000 0.000000 10.000000 
Rope4_Seg02 0.000000 0.000000 0.000000 0.000000 0.000000 0.000000 10.000000 
Rope4_Seg03 0.000000 0.000000 0.000000 0.000000 0.000000 0.000000 10.000000 
Rope4_Seg04 0.000000 0.000000 0.000000 0.000000 0.000000 0.000000 10.000000 
Rope4_Seg05 0.000000 0.000000 0.000000 0.000000 0.000000 0.000000 10.000000 
Rope4_Seg06 0.000000 0.000000 0.000000 0.000000 0.000000 0.000000 10.000000 
Rope4_Seg07 0.000000 0.000000 0.000000 0.000000 0.000000 0.000000 10.000000 
Rope4_Seg08 0.000000 0.000000 0.000000 0.000000 0.000000 0.000000 10.000000 
Rope4_Seg09 0.000000 0.000000 0.000000 0.000000 0.000000 0.000000 10.000000 
L_rear_hand01 0.000000 0.000000 0.000000 0.000000 0.000000 0.000000 10.000000 
L_rear_hand02 0.000000 0.000000 0.000000 0.000000 0.000000 0.000000 10.000000 
L_rear_hand03 0.000000 0.000000 0.000000 0.000000 0.000000 0.000000 10.000000 
#Beginning of Data. Separated by tabs
#Fr	Tx	Ty	Tz	Rx	Ry	Rz	SF
[MASTER]
23 -118.711243 3904.329346 913.689941 0.001660 0.001660 0.001660 4011.571777
24 -115.823105 4011.737305 750.299683 0.001660 0.001660 0.001660 4082.940186
[root]
23 -0.132695 421.551331 1100.626953 -96.559410 -32.248894 -87.151329 1178.594604
24 2.696656 444.668793 1104.892578 -96.481247 -33.924503 -87.057472 1191.018555
[chest]
23 -84.512650 -34.090519 0.000000 -8.876151 -21.565363 147.424759 91.129311
24 -84.512650 -34.090519 0.000000 -9.863422 -24.375095 148.336349 91.129311
[L_mid_tent01]
23 27.299145 22.179050 -249.918701 -0.302087 18.416258 80.336922 252.381683
24 27.299147 22.179047 -249.918701 -0.295099 18.798582 79.931175 252.381683
[R_mid_tent01]
23 23.228794 24.509907 226.238495 129.757126 -40.395260 67.505585 228.744751
24 23.228794 24.509907 226.238495 127.850327 -41.594578 67.644623 228.744751
[spine01]
23 -0.361383 -0.195265 0.000000 -0.000001 -0.000007 22.052340 0.410763
24 -0.361383 -0.195265 0.000000 -0.000001 -0.000007 22.052340 0.410763
[Bip01_Neck]
23 165.484543 71.581718 0.000119 176.643677 -1.657967 43.431911 180.302734
24 165.484543 71.581718 0.000119 176.643677 -1.657967 43.431911 180.302734
[L_humerus]
23 -13.983130 -135.272980 -120.471481 171.797592 12.269371 -91.536736 181.680161
24 -13.983130 -135.272980 -120.471481 172.033844 6.864501 -90.641739 181.680161
[R_humerus]
23 -13.983309 -135.273102 125.287651 -176.841080 -2.401796 -85.892006 184.909012
24 -13.983309 -135.273102 125.287651 -176.938461 0.339406 -85.629349 184.909012
[weapon_bone]
23 235.964890 -300.705902 0.000000 0.000000 -89.951546 -128.212341 382.234833
24 235.964890 -300.705902 0.000000 0.000000 -89.951546 -128.212341 382.234833
[Bip01_Head]
23 213.380966 185.845947 9.412726 4.962490 2.797846 -43.898743 283.123230
24 213.390030 185.827332 9.750479 4.962490 2.797846 -43.898743 283.129242
[eye_left_bone]
23 -24.626970 125.451866 -64.772606 0.000000 -90.000000 -99.840431 143.318359
24 -24.626970 125.451866 -64.772606 0.000000 -90.000000 -99.840431 143.318359
[eye_right_bone]
23 -24.626970 125.451866 64.327362 0.000000 -89.965736 80.156380 143.117676
24 -24.626970 125.451866 64.327362 0.000000 -90.000000 80.156395 143.117676
[L_forearm]
23 322.776093 0.000000 -0.000119 0.000399 -0.002313 -109.553215 322.776093
24 322.776093 0.000000 -0.000119 0.000395 -0.002314 -109.389671 322.776093
[L_front_hand]
23 241.149185 -0.042021 -3.300071 -142.964005 -1.836859 -27.421394 241.171753
24 241.149185 -0.042021 -3.300071 -169.991058 -1.836366 -27.421522 241.171753
[L_weapon_bone]
23 156.183838 0.000000 0.000000 0.000014 0.000007 0.000001 156.183838
24 156.183838 0.000000 0.000000 0.000014 0.000007 0.000001 156.183838
[L_front_hand01_01]
23 86.095154 20.947098 -0.655860 -0.366594 -0.477154 75.385574 88.609184
24 86.095154 20.947098 -0.655860 -0.315664 -0.507420 69.782677 88.609184
[L_front_hand02_01]
23 86.935165 -11.437475 24.513514 154.399796 -59.883835 -61.369587 91.046425
24 86.935165 -11.437475 24.513514 146.441940 -57.112793 -52.037594 91.046425
[L_front_hand03_01]
23 86.637497 -14.123976 -20.424902 -153.913864 58.118134 -62.702885 90.126129
24 86.637497 -14.123976 -20.424902 -146.504303 55.325119 -53.846058 90.126129
[L_front_hand01_02]
23 71.020905 -0.000179 0.000030 0.000245 -0.002334 -101.962204 71.020905
24 71.020905 -0.000179 0.000030 0.000235 -0.002335 -101.481590 71.020905
[L_front_hand02_02]
23 71.020927 -0.000119 0.000060 0.000245 -0.002334 -101.962204 71.020927
24 71.020927 -0.000119 0.000060 0.000235 -0.002335 -101.481590 71.020927
[L_front_hand03_02]
23 71.020905 -0.000060 0.000060 0.000245 -0.002334 -101.962204 71.020905
24 71.020905 -0.000060 0.000060 0.000235 -0.002335 -101.481590 71.020905
[R_forearm]
23 322.776428 -0.000060 0.000030 0.201823 0.066018 -108.550911 322.776428
24 322.776428 -0.000060 0.000030 0.201911 0.065749 -108.398552 322.776428
[R_front_hand]
23 238.847015 -0.006795 2.210259 96.706802 -10.645882 -26.314299 238.857239
24 238.847015 -0.006795 2.210259 134.985733 -10.645700 -26.315247 238.857239
[R_weapon_bone]
23 155.664093 0.002503 -0.000030 0.003487 0.001180 -90.988930 155.664078
24 155.664093 0.002503 -0.000030 0.003487 0.001180 -90.988930 155.664078
[R_front_hand01_01]
23 87.624611 14.231146 22.918642 -148.772797 -58.049347 54.911026 91.683487
24 87.624611 14.231146 22.918642 -145.607422 -56.745121 51.154991 91.683487
[R_front_hand02_01]
23 89.356956 14.367283 -19.491137 149.093582 56.416050 57.211159 92.579636
24 89.356956 14.367283 -19.491137 146.111923 55.123611 53.601894 92.579636
[R_front_hand03_01]
23 87.286232 -22.307278 -0.143439 0.132384 -0.433256 -71.773163 90.091743
24 87.286232 -22.307278 -0.143439 0.112314 -0.437501 -69.367714 90.091743
[R_front_hand01_02]
23 71.020905 0.000060 0.000119 0.002333 -0.000257 102.569504 71.020905
24 71.020905 0.000060 0.000119 0.002333 -0.000255 102.457565 71.020905
[R_front_hand02_02]
23 71.020844 -0.000030 -0.000119 0.002333 -0.000257 102.569504 71.020836
24 71.020844 -0.000030 -0.000119 0.002333 -0.000255 102.457565 71.020836
[R_front_hand03_02]
23 71.020905 0.000000 0.000030 0.002333 -0.000257 102.569504 71.020905
24 71.020905 0.000000 0.000030 0.002333 -0.000255 102.457565 71.020905
[null_rope01_connect]
23 328.732483 0.000000 -0.000238 -146.380615 -66.760521 -171.105621 328.732483
24 328.732483 0.000000 -0.000238 -144.277557 -66.606331 -171.104050 328.732483
[Rope1_Seg01]
23 0.000048 -0.000252 0.000000 -28.573332 -27.013874 175.169403 0.000256
24 0.000047 -0.000261 0.000000 -23.621264 -18.527077 175.121674 0.000265
[Rope1_Seg02]
23 139.999863 -0.000179 0.000000 6.273095 10.377549 4.023956 139.999863
24 139.999863 -0.000179 0.000000 11.655864 12.132062 13.018102 139.999863
[Rope1_Seg03]
23 139.999924 0.000060 -0.000060 8.183767 21.813787 4.504950 139.999924
24 139.999924 0.000060 -0.000060 11.366835 21.425631 8.691547 139.999924
[Rope1_Seg04]
23 139.999924 -0.000060 -0.000119 1.897999 27.688400 -0.325244 139.999924
24 139.999924 -0.000060 -0.000119 10.218740 20.108095 14.520245 139.999924
[Rope1_Seg05]
23 139.999832 0.000119 -0.000060 9.038754 44.474045 39.049385 139.999832
24 139.999832 0.000119 -0.000060 34.619202 32.364559 53.217064 139.999832
[Rope1_Seg06]
23 139.999954 0.000119 -0.000060 3.180946 31.536308 34.228695 139.999954
24 139.999954 0.000119 -0.000060 6.251247 16.619019 10.552501 139.999954
[Rope1_Seg07]
23 139.999985 0.000060 0.000000 -0.593993 6.505294 6.713914 139.999985
24 139.999985 0.000060 0.000000 1.308236 5.869924 2.778023 139.999985
[Rope1_Seg09]
23 121.602913 0.000119 -0.000089 -89.793175 -1.359789 0.847147 121.602913
24 121.602913 0.000119 -0.000089 -89.793175 -1.359789 0.847147 121.602913
[L_mid_hand01]
23 103.859421 1.038730 8.195221 129.753738 -67.188766 -38.008972 104.187431
24 103.859421 1.038730 8.195221 130.544342 -67.584518 -38.866936 104.187431
[L_mid_hand02]
23 105.572853 -4.139662 -10.864139 -168.447937 43.306496 -72.811844 106.211075
24 105.572853 -4.139662 -10.864139 -168.923172 43.409309 -73.498886 106.211075
[L_mid_hand03]
23 104.641464 17.579376 -3.913581 -6.178545 17.755548 74.357048 106.179977
24 104.641464 17.579376 -3.913581 -6.012628 17.808174 74.893669 106.179977
[null_rope02_connect]
23 328.732849 0.000179 -0.000119 -60.661644 27.127914 48.000904 328.732849
24 328.732849 0.000179 -0.000119 -58.408192 25.185120 47.210449 328.732849
[Rope2_Seg01]
23 0.000095 0.000299 0.000000 95.695221 -26.386383 51.184052 0.000314
24 0.000095 0.000308 0.000000 95.706886 -25.020258 50.868408 0.000322
[Rope2_Seg02]
23 139.999741 -0.000060 -0.000119 -0.491393 -4.340136 -5.421002 139.999756
24 139.999741 -0.000060 -0.000119 -0.483353 -3.234852 -7.927148 139.999756
[Rope2_Seg03]
23 140.000107 0.000030 0.000000 -1.161767 -8.551031 -11.063660 140.000107
24 140.000107 0.000030 0.000000 -0.403735 -5.477082 -14.086406 140.000107
[Rope2_Seg04]
23 139.999802 0.000000 -0.000060 -2.679083 -18.212210 -26.927839 139.999802
24 139.999802 0.000000 -0.000060 0.542445 -7.571576 -23.144377 139.999802
[Rope2_Seg05]
23 139.999985 -0.000060 0.000119 -4.785241 -18.260441 -36.045700 139.999985
24 139.999985 -0.000060 0.000119 2.293628 -10.545609 -27.353237 139.999985
[Rope2_Seg06]
23 139.999893 -0.000030 -0.000119 -4.144226 -10.001616 -31.536865 139.999893
24 139.999893 -0.000030 -0.000119 3.379757 -12.956024 -29.794901 139.999893
[Rope2_Seg07]
23 139.999893 0.000060 -0.000060 -1.469347 -2.710154 -13.347198 139.999893
24 139.999893 0.000060 -0.000060 0.727759 -6.310782 -14.720510 139.999893
[Rope2_Seg09]
23 121.338966 0.000089 -0.000060 33.793236 -1.359788 -0.847141 121.338966
24 121.338966 0.000089 -0.000060 33.793236 -1.359788 -0.847141 121.338966
[R_mid_hand01]
23 104.680779 11.144459 -10.335981 -23.980114 42.262276 59.248188 105.778534
24 104.680779 11.144459 -10.335981 -21.077984 43.559654 63.514442 105.778534
[R_mid_hand02]
23 104.070427 2.443552 8.231699 59.529968 -60.717201 27.702343 104.424065
24 104.070427 2.443552 8.231699 56.113041 -63.580776 31.561979 104.424065
[R_mid_hand03]
23 106.028137 -11.221827 -5.996406 -174.753189 14.937827 -67.669312 106.788818
24 106.028137 -11.221827 -5.996406 -175.658295 15.220736 -71.161552 106.788818
[spine02]
23 129.756927 0.001550 0.000119 0.547035 -4.022637 -15.574794 129.756927
24 129.756927 0.001550 0.000119 0.544111 -4.023035 -15.538071 129.756927
[spine03]
23 78.613998 0.081691 -4.898999 2.006925 3.774765 18.121361 78.766541
24 78.613998 0.081694 -4.898998 2.006636 3.774919 18.112587 78.766541
[pelvis]
23 169.435242 0.051022 0.000000 -0.070588 -0.177634 17.433266 169.435257
24 169.435242 0.051022 0.000000 -0.070534 -0.177656 17.398243 169.435257
[null_rope03_connect]
23 -1.257226 -2.466202 137.391083 -178.879150 -85.645844 -100.800140 137.418976
24 -1.257226 -2.466202 137.391083 -178.991058 -85.798912 -98.988068 137.418976
[null_rope04_connect]
23 -1.259640 -2.480268 -137.844437 -178.879150 -85.645844 -100.800140 137.872513
24 -1.259640 -2.480268 -137.844437 -178.991058 -85.798912 -98.988068 137.872513
[Rope3_Seg01]
23 0.000000 0.000000 0.000000 5.372877 -86.630005 -50.722240 0.000000
24 0.000000 0.000000 0.000000 -115.134193 -74.319443 73.562370 0.000000
[Rope3_Seg02]
23 139.999924 -0.000119 0.000060 -1.087047 12.959751 3.303383 139.999924
24 139.999924 -0.000119 0.000060 -1.142894 11.864044 -1.539254 139.999924
[Rope3_Seg03]
23 139.999924 -0.000119 0.000119 7.207478 32.930550 12.009593 139.999924
24 139.999924 -0.000119 0.000119 3.091978 44.453419 -5.407845 139.999924
[Rope3_Seg04]
23 139.999924 0.000119 0.000000 25.340546 36.081539 12.898312 139.999924
24 139.999924 0.000119 0.000000 16.141779 48.221104 -11.857834 139.999924
[Rope3_Seg05]
23 139.999924 -0.000238 0.000060 26.593861 26.013298 -15.343644 139.999924
24 139.999924 -0.000238 0.000060 8.237733 15.832475 -14.558679 139.999924
[Rope3_Seg06]
23 139.999893 -0.000119 -0.000060 12.418053 16.129721 -37.403595 139.999893
24 139.999893 -0.000119 -0.000060 5.247456 12.921991 -18.570786 139.999893
[Rope3_Seg07]
23 139.999771 0.000060 -0.000119 1.917619 3.345209 -16.083183 139.999771
24 139.999771 0.000060 -0.000119 2.115104 6.743843 -11.418805 139.999771
[Rope3_Seg08]
23 139.999985 -0.000060 0.000000 0.546884 1.108346 -6.624348 139.999985
24 139.999985 -0.000060 0.000000 1.036590 3.206632 -6.033240 139.999985
[Rope3_Seg09]
23 90.185997 -0.000179 -0.000060 89.793228 -1.359877 -0.847183 90.185997
24 90.185997 -0.000179 -0.000060 89.793228 -1.359877 -0.847183 90.185997
[R_rear_hand01]
23 103.366196 -6.073594 -10.757982 -174.043228 23.976637 -65.002983 104.101845
24 103.366196 -6.073594 -10.757982 -175.487595 24.273657 -68.532669 104.101845
[R_rear_hand02]
23 100.509819 12.039542 -7.992327 -18.533098 34.659100 62.503895 101.543350
24 100.509819 12.039542 -7.992327 -16.360683 35.627853 66.274040 101.543350
[R_rear_hand03]
23 101.539970 5.215704 5.435467 76.952400 -63.971771 15.629106 101.819031
24 101.539970 5.215704 5.435467 75.232674 -67.112511 17.511564 101.819031
[Rope4_Seg01]
23 0.000010 0.000038 -0.000114 -24.170483 -71.491089 167.031830 0.000121
24 0.000010 0.000038 -0.000114 -20.405533 -67.191521 163.138138 0.000121
[Rope4_Seg02]
23 139.999985 0.000060 0.000119 -0.251882 4.769404 8.795959 139.999985
24 139.999985 0.000060 0.000119 -0.900809 5.906997 10.822210 139.999985
[Rope4_Seg03]
23 139.999924 0.000000 -0.000238 -1.850305 6.775781 13.141530 139.999924
24 139.999924 0.000000 -0.000238 -4.006157 7.579305 16.198931 139.999924
[Rope4_Seg04]
23 139.999985 0.000000 0.000119 -9.437842 3.445461 21.974785 139.999985
24 139.999985 0.000000 0.000119 -11.654119 4.645450 20.162300 139.999985
[Rope4_Seg05]
23 139.999802 -0.000060 -0.000119 -6.984913 8.264002 13.790957 139.999802
24 139.999802 -0.000060 -0.000119 -9.433231 8.285235 13.382836 139.999802
[Rope4_Seg06]
23 139.999924 0.000000 0.000060 11.362828 26.260956 9.225494 139.999924
24 139.999924 0.000000 0.000060 -20.292599 14.950272 15.811349 139.999924
[Rope4_Seg07]
23 139.999802 0.000000 0.000000 137.187561 20.907404 5.564886 139.999802
24 139.999802 0.000000 0.000000 -58.118649 3.780141 16.691538 139.999802
[Rope4_Seg08]
23 139.999924 0.000000 0.000119 24.034031 -4.995997 -9.481530 139.999924
24 139.999924 0.000000 0.000119 -27.120909 -7.241794 7.017690 139.999924
[Rope4_Seg09]
23 90.185791 0.000060 0.000060 -135.617828 2.228885 0.850567 90.185791
24 90.185791 0.000060 0.000060 -135.617828 2.228885 0.850567 90.185791
[L_rear_hand01]
23 101.696655 -8.392275 -7.654577 -13.808605 -36.569195 109.397423 102.329041
24 101.696655 -8.392275 -7.654577 -13.120160 -36.794415 108.245636 102.329041
[L_rear_hand02]
23 102.726799 -1.568258 5.773216 72.647606 70.590698 159.713440 102.900848
24 102.726799 -1.568258 5.773216 71.814774 71.499886 158.834518 102.900848
[L_rear_hand03]
23 104.552910 9.721220 -10.420293 -177.121979 -24.509384 -107.501076 105.519653
24 104.552910 9.721220 -10.420293 -177.558792 -24.551929 -106.459068 105.519653
